<?xml version="1.0" standalone="no"?>
<!DOCTYPE svg PUBLIC "-//W3C//DTD SVG 20010904//EN"
 "http://www.w3.org/TR/2001/REC-SVG-20010904/DTD/svg10.dtd">
<svg version="1.0" xmlns="http://www.w3.org/2000/svg"
 width="512.000000pt" height="512.000000pt" viewBox="0 0 512.000000 512.000000"
 preserveAspectRatio="xMidYMid meet">
<metadata>
Created by potrace 1.14, written by Peter Selinger 2001-2017
</metadata>
<g transform="translate(0.000000,512.000000) scale(0.100000,-0.100000)"
fill="#000000" stroke="none">
<path d="M2234 4362 c-19 -12 -32 -46 -25 -64 3 -10 41 -53 84 -98 66 -67 76
-81 60 -86 -10 -4 -47 -20 -83 -37 -64 -29 -68 -30 -240 -32 -186 -2 -250 -13
-327 -57 -81 -46 -153 -125 -185 -203 -41 -100 -42 -108 -42 -550 0 -391 2
-435 18 -485 59 -175 174 -280 347 -314 22 -5 27 -12 32 -47 8 -57 30 -79 83
-79 23 0 50 3 59 6 19 8 48 61 40 73 -3 5 -2 16 1 24 5 13 68 15 490 15 l484
0 0 -23 c0 -56 38 -84 105 -80 46 4 75 33 75 76 0 24 4 29 25 30 49 3 61 5
115 23 72 25 128 64 183 128 62 74 91 133 104 218 4 19 6 220 6 445 1 444 -2
473 -53 567 -37 68 -113 144 -174 175 -100 51 -135 56 -382 57 -147 1 -237 5
-245 12 -20 15 -103 54 -117 54 -30 0 -16 26 52 96 42 42 78 85 81 95 9 28
-23 69 -54 69 -21 0 -53 -24 -136 -105 -60 -57 -110 -104 -112 -102 -1 1 -49
48 -106 105 -102 100 -130 116 -163 94z m797 -502 c52 -13 132 -66 169 -112
11 -15 31 -49 43 -75 21 -46 22 -61 24 -403 2 -360 -2 -431 -34 -498 -26 -54
-96 -120 -161 -150 l-57 -26 -560 0 -560 0 -60 27 c-72 34 -129 92 -164 167
l-25 55 0 385 c1 369 2 387 22 440 35 89 120 164 212 188 66 17 70 17 608 15
344 -1 508 -5 543 -13z m487 -437 c2 -24 -3 -36 -24 -52 -34 -27 -47 -26 -80
2 -22 19 -25 28 -19 55 4 20 17 37 33 46 24 13 31 13 57 -3 21 -12 31 -26 33
-48z m-20 -143 c27 -26 28 -64 2 -90 -26 -26 -64 -25 -90 2 -26 28 -25 56 2
85 27 28 57 29 86 3z m5 -188 c9 -8 17 -27 17 -42 0 -57 -76 -84 -112 -40 -25
31 -23 56 7 86 27 27 54 26 88 -4z"/>
<path d="M1896 3770 c-89 -30 -153 -101 -176 -198 -6 -25 -4 -34 9 -42 13 -7
30 6 86 64 39 40 97 90 128 111 57 38 67 54 45 72 -18 14 -35 12 -92 -7z"/>
<path d="M2293 3579 c-12 -4 -24 -18 -28 -30 -4 -12 -7 -139 -8 -282 0 -255 1
-261 22 -278 28 -23 58 -17 134 29 34 21 113 67 175 103 62 35 130 74 150 85
20 12 43 34 50 48 24 47 -3 70 -250 211 -10 6 -57 33 -105 61 -107 61 -112 63
-140 53z"/>
<path d="M504 2085 c-12 -8 -14 -59 -12 -300 l3 -290 90 0 90 0 5 95 5 95 73
0 c40 0 78 3 84 7 14 8 18 103 7 136 -8 20 -15 22 -89 22 l-80 0 0 43 0 43
116 -1 c105 -1 117 1 123 18 8 21 5 127 -4 136 -11 10 -396 7 -411 -4z"/>
<path d="M1033 2092 c-16 -2 -23 -11 -24 -25 -5 -131 2 -562 9 -569 6 -6 94
-8 215 -6 190 3 208 5 234 24 42 31 55 66 55 154 0 94 -19 137 -70 154 l-32
11 21 21 c17 18 21 34 22 86 0 79 -20 119 -71 138 -33 12 -302 21 -359 12z
m263 -169 c11 -40 -7 -58 -57 -58 l-43 0 -2 43 -1 42 48 0 c44 0 49 -2 55 -27z
m35 -210 c0 -10 2 -26 4 -36 6 -32 -22 -47 -83 -45 l-56 3 -1 48 -1 47 68 0
c58 0 68 -3 69 -17z"/>
<path d="M1638 2092 c-10 -2 -19 -9 -19 -15 -7 -61 -3 -565 4 -574 13 -18 163
-18 174 -1 4 7 8 49 9 93 1 44 2 83 3 86 0 3 34 5 74 4 39 -1 78 3 85 8 7 6
12 35 12 78 0 79 -1 79 -98 78 -35 -1 -66 2 -69 5 -4 3 -7 22 -9 41 -2 40 -12
37 126 39 52 1 100 4 106 8 15 10 16 136 1 145 -12 7 -366 12 -399 5z"/>
<path d="M2145 2088 c-22 -13 -21 -584 2 -592 22 -9 446 -7 460 2 15 10 15
300 -1 310 -15 9 -144 10 -158 1 -7 -4 -12 -38 -12 -81 l-1 -73 -56 -3 -56 -3
0 215 c0 119 -3 219 -6 223 -10 10 -154 10 -172 1z"/>
<path d="M2715 2087 c-11 -6 -15 -26 -15 -70 0 -81 7 -90 63 -86 35 3 47 0 50
-11 1 -8 3 -71 2 -140 l0 -125 -55 -5 -55 -5 0 -75 0 -75 185 -3 c102 -1 195
0 207 3 20 5 22 11 20 78 l-2 72 -52 3 c-38 2 -53 7 -53 18 -1 7 -1 52 -1 99
0 47 0 103 1 125 l0 40 44 0 c24 0 48 6 54 13 14 17 13 135 -1 144 -17 10
-374 10 -392 0z"/>
<path d="M3238 2092 c-23 -5 -32 -40 -25 -103 5 -47 28 -90 91 -174 6 -7 -8
-33 -38 -74 -25 -35 -47 -68 -47 -75 -6 -47 -8 -116 -3 -144 l5 -33 87 3 87 3
6 72 c4 56 11 78 32 106 32 42 53 40 85 -9 17 -26 23 -51 24 -95 0 -34 6 -63
13 -69 8 -6 47 -10 92 -8 l78 3 3 85 3 85 -50 70 -49 70 46 65 c43 60 47 70
50 137 4 61 2 72 -14 81 -22 11 -150 9 -161 -2 -4 -4 -9 -30 -10 -58 -3 -46
-28 -100 -57 -120 -30 -21 -79 49 -82 120 -1 29 -5 56 -7 59 -6 6 -136 11
-159 5z"/>
</g>
</svg>
